<svg width="49" height="49" viewBox="0 0 49 49" fill="none" xmlns="http://www.w3.org/2000/svg">
<path d="M7.49234 8.63177C10.6642 7.14774 14.0557 6.0692 17.6014 5.45508C18.0369 6.24237 18.5456 7.30129 18.8964 8.14365C22.6656 7.57681 26.4001 7.57681 30.1 8.14365C30.4507 7.30129 30.971 6.24237 31.4103 5.45508C34.9599 6.0692 38.3552 7.1517 41.5271 8.63963C47.9248 18.3073 49.6591 27.7349 48.7919 37.0286C44.5487 40.1974 40.4364 42.1223 36.3936 43.382C35.3954 42.0081 34.5051 40.5478 33.7382 39.0086C35.1988 38.4536 36.5978 37.7687 37.9197 36.9736C37.569 36.7137 37.226 36.4421 36.8946 36.1626C28.832 39.9337 20.0718 39.9337 12.1056 36.1626C11.7703 36.4421 11.4273 36.7137 11.0804 36.9736C12.4062 37.7726 13.8091 38.4575 15.2697 39.0126C14.5028 40.5478 13.6163 42.0121 12.6143 43.3858C8.56758 42.1262 4.45153 40.2014 0.208261 37.0286C-0.809216 26.2549 1.94639 16.9139 7.49234 8.63177ZM32.6398 31.3131C35.0601 31.3131 37.0449 29.0536 37.0449 26.3021C37.0449 23.5506 35.1025 21.2872 32.6398 21.2872C30.177 21.2872 28.1922 23.5466 28.2346 26.3021C28.2308 29.0536 30.177 31.3131 32.6398 31.3131ZM16.3604 31.3131C18.7807 31.3131 20.7656 29.0536 20.7656 26.3021C20.7656 23.5506 18.8232 21.2872 16.3604 21.2872C13.8977 21.2872 11.9129 23.5466 11.9553 26.3021C11.9553 29.0536 13.8977 31.3131 16.3604 31.3131Z" fill="white"/>
</svg>
