<svg width="44" height="44" viewBox="0 0 44 44" fill="none" xmlns="http://www.w3.org/2000/svg">
<path d="M6.72782 7.75098C9.57602 6.41838 12.6214 5.4499 15.8054 4.89844C16.1964 5.60539 16.6532 6.55626 16.9682 7.31267C20.3528 6.80367 23.7062 6.80367 27.0285 7.31267C27.3434 6.55626 27.8107 5.60539 28.2052 4.89844C31.3925 5.4499 34.4414 6.42194 37.2896 7.75804C43.0345 16.4392 44.5918 24.9048 43.8132 33.2502C40.0029 36.0956 36.3103 37.8241 32.6799 38.9552C31.7836 37.7216 30.9842 36.4102 30.2955 35.0282C31.6071 34.5298 32.8634 33.9148 34.0504 33.2007C33.7355 32.9674 33.4274 32.7235 33.1298 32.4726C25.89 35.8588 18.0237 35.8588 10.8703 32.4726C10.5692 32.7235 10.2613 32.9674 9.94979 33.2007C11.1403 33.9183 12.4 34.5333 13.7116 35.0317C13.0229 36.4102 12.2269 37.7252 11.3271 38.9587C7.69334 37.8276 3.99729 36.0992 0.18701 33.2502C-0.726643 23.5758 1.74778 15.1879 6.72782 7.75098ZM29.3092 28.1179C31.4825 28.1179 33.2648 26.0889 33.2648 23.6182C33.2648 21.1474 31.5206 19.115 29.3092 19.115C27.0977 19.115 25.3155 21.1439 25.3535 23.6182C25.3501 26.0889 27.0977 28.1179 29.3092 28.1179ZM14.691 28.1179C16.8643 28.1179 18.6466 26.0889 18.6466 23.6182C18.6466 21.1474 16.9024 19.115 14.691 19.115C12.4796 19.115 10.6973 21.1439 10.7353 23.6182C10.7353 26.0889 12.4796 28.1179 14.691 28.1179Z" fill="white"/>
</svg>
