<svg width="43" height="43" viewBox="0 0 43 43" fill="none" xmlns="http://www.w3.org/2000/svg">
<path d="M6.57491 7.57482C9.35838 6.27251 12.3346 5.32604 15.4461 4.78711C15.8283 5.478 16.2747 6.40725 16.5825 7.14647C19.8902 6.64904 23.1674 6.64904 26.4143 7.14647C26.722 6.40725 27.1786 5.478 27.5641 4.78711C30.6791 5.32604 33.6587 6.27598 36.4422 7.58172C42.0564 16.0656 43.5784 24.3388 42.8174 32.4945C39.0937 35.2753 35.485 36.9645 31.9372 38.0699C31.0612 36.8643 30.28 35.5827 29.607 34.2321C30.8888 33.745 32.1165 33.144 33.2765 32.4462C32.9687 32.2182 32.6677 31.9798 32.3769 31.7345C25.3016 35.0439 17.6141 35.0439 10.6233 31.7345C10.329 31.9798 10.028 32.2182 9.72366 32.4462C10.8871 33.1474 12.1181 33.7484 13.4 34.2356C12.7269 35.5827 11.949 36.8678 11.0697 38.0733C7.51849 36.9679 3.90645 35.2787 0.18276 32.4945C-0.710128 23.04 1.70806 14.8428 6.57491 7.57482ZM28.6431 27.4788C30.767 27.4788 32.5088 25.496 32.5088 23.0814C32.5088 20.6668 30.8042 18.6806 28.6431 18.6806C26.4819 18.6806 24.7401 20.6633 24.7773 23.0814C24.774 25.496 26.4819 27.4788 28.6431 27.4788ZM14.3571 27.4788C16.481 27.4788 18.2228 25.496 18.2228 23.0814C18.2228 20.6668 16.5183 18.6806 14.3571 18.6806C12.196 18.6806 10.4542 20.6633 10.4913 23.0814C10.4913 25.496 12.196 27.4788 14.3571 27.4788Z" fill="black"/>
</svg>
